<svg xmlns="http://www.w3.org/2000/svg" width="32" height="32" viewBox="7 23 32 32"><g data-name="Icon_Shopping"><path d="M7 23h32v32H7V23z" fill="rgba(68,68,68,0 )" fill-rule="evenodd" data-name="Rectangle 391"/><g data-name="Group 343"><path d="M0 6.488a4.941 6.588 0 1 1 0 .1z" stroke-dasharray="0 0" stroke-linejoin="round" stroke-linecap="round" stroke="#ffaba3" fill="transparent" transform="matrix(.89881 0 0 .9241 18.56 26.634)" data-name="Ellipse 64"/><path d="M9.333 0h7.84c-.402 0 .032.4.074.92l1.333 16.667a1 1 0 0 1-.997 1.08h-16.5a1 1 0 0 1-.997-1.08L1.42.92A1 1 0 0 1 2.417 0h6.916Z" fill-rule="evenodd" fill="url(&quot;#a&quot;)" transform="translate(13.667 32.726)" data-name="Rectangle 390"/><path d="M18.06 35.92a1.098 1.098 0 1 1 0 .1z" fill="#fffbf3" fill-rule="evenodd" data-name="Ellipse 65"/><path d="M25.746 35.92a1.098 1.098 0 1 1 0 .1z" fill="#fffbf3" fill-rule="evenodd" data-name="Ellipse 66"/></g></g><defs><linearGradient x1=".551" y1="0" x2=".503" y2="1.014" id="a"><stop stop-color="#ffbdb7" offset="0"/><stop stop-color="#ffaba3" offset="1"/></linearGradient></defs></svg>