<svg xmlns="http://www.w3.org/2000/svg" width="28.75" height="22.5" viewBox="22.5 3.75 28.75 22.5"><g data-name="Icon"><g data-name="Group 9"><path d="M43.75 17.5H50c.688 0 1.25-.563 1.25-1.25V5c0-.688-.563-1.25-1.25-1.25H23.75c-.688 0-1.25.563-1.25 1.25v11.25c0 .688.563 1.25 1.25 1.25H30" stroke-linejoin="round" stroke-linecap="round" stroke="#092058" fill="transparent" data-name="Stroke 1"/><path d="M30 26.25h13.75V7.5H30v18.75Z" stroke-linejoin="round" stroke-linecap="round" stroke="#b8e986" fill="transparent" data-name="Stroke 3"/><path d="M43.75 13.75H45c.688 0 1.25-.563 1.25-1.25V8.75c0-.688-.563-1.25-1.25-1.25H28.75c-.688 0-1.25.563-1.25 1.25v3.75c0 .688.563 1.25 1.25 1.25H30" stroke-linejoin="round" stroke-linecap="round" stroke="#092058" fill="transparent" data-name="Stroke 5"/><path d="M40 7.5v18.75" stroke-linejoin="round" stroke-linecap="round" stroke="#b8e986" fill="transparent" data-name="Stroke 6"/><path d="M32.5 21.25v2.5" stroke-linejoin="round" stroke-linecap="round" stroke="#b8e986" fill="transparent" data-name="Stroke 7"/><path d="M32.5 16.25v2.5" stroke-linejoin="round" stroke-linecap="round" stroke="#b8e986" fill="transparent" data-name="Stroke 8"/></g></g></svg>