<svg xmlns="http://www.w3.org/2000/svg" width="28.75" height="21.25" viewBox="0.625 4.375 28.75 21.25"><g data-name="Icon"><path d="M28.125 19.39v4.98c0 .694-.56 1.255-1.25 1.255h-25c-.69 0-1.25-.561-1.25-1.255V5.63c0-.693.56-1.254 1.25-1.254h25c.69 0 1.25.561 1.25 1.254v4.981" stroke-linejoin="round" stroke-linecap="round" stroke="#092058" fill="transparent" data-name="Stroke 1"/><path d="M29.375 19.375H22.5a4.375 4.375 0 1 1 0-8.75h6.875v8.75Z" stroke-linejoin="round" stroke-linecap="round" stroke="#00c8f9" fill="transparent" data-name="Stroke 3"/><path d="M24.375 15a1.874 1.874 0 1 1-3.75 0 1.874 1.874 0 1 1 3.75 0Z" stroke-linejoin="round" stroke-linecap="round" stroke="#00c8f9" fill="transparent" data-name="Stroke 5"/></g></svg>